<svg xmlns="http://www.w3.org/2000/svg" width="20" height="20" viewBox="0 0 20 20">
  <g id="Layer_14" data-name="Layer 14" transform="translate(-1.905 -1.905)">
    <path id="Path_3002" data-name="Path 3002" d="M11.9,11.428A4.762,4.762,0,1,0,7.143,6.667,4.762,4.762,0,0,0,11.9,11.428Zm0-8.571A3.809,3.809,0,1,1,8.1,6.667,3.809,3.809,0,0,1,11.9,2.857Z" fill="#43494b"/>
    <path id="Path_3003" data-name="Path 3003" d="M12.914,12.381H10.9A9.019,9.019,0,0,0,1.9,21.428a.476.476,0,0,0,.476.476H21.428a.524.524,0,0,0,.476-.533,9.009,9.009,0,0,0-8.99-8.99ZM2.857,20.952a8.057,8.057,0,0,1,8.029-7.619H12.9a8.057,8.057,0,0,1,8.048,7.619Z" fill="#43494b"/>
  </g>
</svg>
