<svg xmlns="http://www.w3.org/2000/svg" width="16" height="12.593" viewBox="0 0 16 12.593">
  <g id="camera" transform="translate(0 -1.703)">
    <g id="Group_4573" data-name="Group 4573">
      <g id="Group_4572" data-name="Group 4572">
        <path id="Path_3004" data-name="Path 3004" d="M15.468,3.665a1.72,1.72,0,0,0-1.262-.532H11.681V3.1a1.366,1.366,0,0,0-.411-.989,1.392,1.392,0,0,0-.989-.411H5.719A1.4,1.4,0,0,0,4.3,3.1v.03H1.795a1.72,1.72,0,0,0-1.262.532A1.808,1.808,0,0,0,0,4.928V12.5a1.72,1.72,0,0,0,.532,1.262,1.808,1.808,0,0,0,1.262.532H14.205a1.72,1.72,0,0,0,1.262-.532A1.808,1.808,0,0,0,16,12.5V4.928A1.72,1.72,0,0,0,15.468,3.665ZM15.209,12.5h-.015a.987.987,0,0,1-.989.989H1.795A.987.987,0,0,1,.806,12.5V4.928a.987.987,0,0,1,.989-.989H4.73a.409.409,0,0,0,.411-.411V3.087a.573.573,0,0,1,.593-.593h4.548a.573.573,0,0,1,.593.593v.441a.409.409,0,0,0,.411.411h2.935a.987.987,0,0,1,.989.989Z" fill="#fef6f2"/>
        <path id="Path_3005" data-name="Path 3005" d="M8,4.973a3.739,3.739,0,1,0,2.646,1.1A3.748,3.748,0,0,0,8,4.973ZM10.068,10.8a2.938,2.938,0,0,1-4.137,0A2.908,2.908,0,0,1,5.08,8.73a2.972,2.972,0,0,1,.852-2.068A2.908,2.908,0,0,1,8,5.81a2.972,2.972,0,0,1,2.068.852A2.908,2.908,0,0,1,10.92,8.73,2.846,2.846,0,0,1,10.068,10.8Z" fill="#fef6f2"/>
        <circle id="Ellipse_88" data-name="Ellipse 88" cx="0.745" cy="0.745" r="0.745" transform="translate(12.669 4.958)" fill="#fef6f2"/>
      </g>
    </g>
  </g>
</svg>
