<svg width="18" height="15" viewBox="0 0 18 15" fill="none" xmlns="http://www.w3.org/2000/svg">
<path d="M8.88708 4.74866L6.38084 7.2355L6.36891 7.10524C6.36891 5.79865 7.43902 4.73682 8.75581 4.73682L8.88708 4.74866Z" fill="#363537"/>
<path d="M8.75584 3.15788C6.5599 3.15788 4.77767 4.92631 4.77767 7.10526C4.77767 7.61447 4.88109 8.1 5.06011 8.54604L2.73288 10.8553C1.53149 9.86052 0.584672 8.57368 -0.000117813 7.10526C1.38029 3.63948 4.77368 1.1842 8.75581 1.1842C9.86971 1.1842 10.9358 1.38156 11.9264 1.73682L10.2078 3.43813C9.75834 3.26446 9.26903 3.15788 8.75584 3.15788Z" fill="#363537"/>
<path d="M16.7122 1.00658L14.8981 2.80658L14.5361 3.1658C15.8489 4.18423 16.8872 5.53819 17.5078 7.10527C16.1314 10.571 12.734 13.0263 8.75584 13.0263C7.5226 13.0263 6.34507 12.7895 5.26698 12.3592L4.92882 12.6947L2.60954 15L1.59511 13.9974L15.6978 0L16.7122 1.00658ZM12.3123 5.36844L11.0831 6.58818C11.1189 6.75793 11.1427 6.92764 11.1427 7.10527C11.1427 8.41186 10.0726 9.47369 8.75584 9.47369C8.57682 9.47369 8.40575 9.45001 8.23867 9.41448L7.00941 10.6342C7.53852 10.8947 8.12727 11.0527 8.75584 11.0527C10.9518 11.0527 12.734 9.28422 12.734 7.10527C12.734 6.4816 12.5749 5.89737 12.3123 5.36844Z" fill="#363537"/>
</svg>
