<?xml version="1.0" encoding="utf-8"?>
<!-- Generator: Adobe Illustrator 23.0.3, SVG Export Plug-In . SVG Version: 6.00 Build 0)  -->
<svg version="1.1" id="_x2018_лой_x5F_1" xmlns="http://www.w3.org/2000/svg" xmlns:xlink="http://www.w3.org/1999/xlink"
	 x="0px" y="0px" viewBox="0 0 3000 2000" enable-background="new 0 0 3000 2000" xml:space="preserve">
<rect fill="#FFFFFF" width="3000" height="2000"/>
<g>
	<path fill="#EBF3FA" d="M2673.96,1865.69c-53.27,0-347.21,0.06-715.68-0.01c-95.15-0.01-195.25-0.04-297.49-0.09
		c-18,0-36.07,0-54.19-0.01c-73.21-0.03-147.22-0.06-221.02-0.11c-19.86-0.01-39.73-0.02-59.54-0.04
		c-119.92-0.07-238.54-0.17-351.39-0.31c-439.72-0.5-569.07-4.07-569.07-4.33c-0.9-2.08-404.22-207.58-82.92-637.64
		c161.63-216.33-22.46-451.73,115.28-658.13c194.95-292.12,517.7-120.86,739.08-213.44c39.12-16.33,78.37-42.64,117.66-83
		c22.11-22.69,46.36-42.54,72.31-59.68c3.98-2.64,7.99-5.21,12.06-7.71c15.54-9.58,31.65-18.25,48.25-26.04
		c11.14-5.22,22.5-10.06,34.06-14.49h0.01c18.36-7.05,37.22-13.14,56.47-18.27c27.35-7.32,55.5-12.75,84.22-16.43
		c12.52-1.62,25.15-2.88,37.88-3.84c247.36-18.48,525.74,85.51,669.41,237.51c28.93,30.61,160.45,188.96,56.77,406.64
		c-65.46,137.42,208.77,268.68,306.21,425.63C2920.1,1590.89,2676.2,1860.5,2673.96,1865.69z"/>
	<path fill="#F8FCFF" d="M654.25,748.63c0,0,43.19-86.84,146.47-77.19c0,0,149.95-144.74,309.85-19.3c0,0,169.97-31.08,295.85,26.91
		c83.93,38.67,111.65,79.23,111.65,79.23L654.25,748.63z"/>
	<g>
		<path fill="#F78248" d="M1865.08,601.11c-162.51-223.05-393.12,37.84-393.12,37.84s-215.02-273.87-390.25-60.67
			c-175.23,213.2,373.09,649.37,373.09,649.37S2027.59,824.16,1865.08,601.11z"/>
		<g>
			<path fill="#FFB699" d="M1801.58,682.22c-17.18,5.52-35.95-1.2-45.62-16.43c-10.36-16.32-27.13-35.05-51.52-40.59
				c-16.4-3.73-26.68-20.05-22.95-36.45c3.73-16.4,20.04-26.68,36.45-22.95c52.85,12.01,83.09,53.9,97.85,81.95
				C1822.84,661.14,1816.01,677.65,1801.58,682.22L1801.58,682.22z"/>
		</g>
		<g>
			<path fill="#FFB699" d="M1412.44,1142c-30.38-29.31-112.65-120.51-112.65-120.51c-13.29-12.87-32.55-43.61-19.68-56.91
				c12.87-13.3,50.14,20.5,63.43,33.37c0,0,59.62,72.73,93.06,96.93c36.74,26.59,51.68,47.31,38.81,60.6
				C1468.84,1162.27,1439.14,1167.75,1412.44,1142z"/>
		</g>
	</g>
	<g opacity="0.5">
		<path opacity="0.5" fill="#AEC3FF" d="M1182.88,1442.22c0,0-103.05-97.76-212.41-116.35c-14.53-2.47-24.13,14.75-14.48,25.89
			c0.16,0.19,0.33,0.37,0.49,0.56C973.27,1371.09,1103.32,1401.05,1182.88,1442.22z"/>
		<path opacity="0.5" fill="#AEC3FF" d="M1215.43,1467.68c0,0-168.01-89.63-312.46-71.04c-8.81,1.13-15.52,8.95-14.72,17.79
			c0.53,5.76,4.15,12.43,14.4,19.03C930.01,1451.05,1102.23,1443.72,1215.43,1467.68z"/>
	</g>
	<g opacity="0.5">
		<path opacity="0.5" fill="#AEC3FF" d="M1830.68,1299.53c0,0,82.07-77.86,169.17-92.67c11.58-1.97,19.22,11.75,11.53,20.62
			c-0.13,0.15-0.26,0.3-0.39,0.45C1997.62,1242.87,1894.05,1266.74,1830.68,1299.53z"/>
		<path opacity="0.5" fill="#AEC3FF" d="M1804.76,1319.8c0,0,133.81-71.38,248.85-56.58c7.01,0.9,12.36,7.13,11.72,14.17
			c-0.42,4.59-3.3,9.9-11.47,15.15C2032.08,1306.56,1894.92,1300.72,1804.76,1319.8z"/>
	</g>
	<path opacity="0.3" fill="#AEC3FF" d="M1142.18,1538.82c0,0,20.55,87.5,4.03,90.31s-15.87-99.15-15.87-99.15
		s-83.77-35.78-115.81-31.23c0,0,54.72,83.89,38.01,82.55s-77.69-85.98-77.69-85.98s-84.78-11.82-96.05,38.62
		c-11.27,50.43,11.64,74.37,24.24,76.93s92.48-2.05,90.87,8.42c-1.61,10.47-54.85,29.5-85.37,21.5c0,0,36.88,80.52,80.3,74.42
		c43.41-6.1,55.7-33.69,82.6-36.97s46.95,3.1,33.77,10.97c-13.17,7.87-59.06,5.03-80.04,24.53c-20.97,19.51-38.18,32.17,2.75,38.21
		c112.02,16.53,139.57-65.52,139.57-65.52s75.91-47.08,36.93-104.63C1204.43,1581.81,1173.74,1546.77,1142.18,1538.82z"/>
	<path opacity="0.5" fill="#AEC3FF" d="M1963.99,1406.23c-10.04-50.93-95.47-41.21-95.47-41.21s-63.39,83.46-80.19,84.37
		s40.26-81.94,40.26-81.94c-32.06-5.38-117.09,28.43-117.09,28.43s-1.93,102.41-18.45,99.16c-16.51-3.25,6.34-90.59,6.34-90.59
		c-31.89,7.19-63.6,41.59-63.6,41.59c-40.6,56.8,34.44,106,34.44,106s-1.44,35.47-26.14,74.55l0,0c0,0-5.46,7.15-11.37,19.54
		l8.52,0.6c0.86-2.24,1.78-4.39,2.77-6.45c0-0.02,0.01-0.03,0.02-0.04c0.01-0.03,0.03-0.06,0.04-0.09c0.67-1.28,1.64-3.09,2.85-5.3
		c0,0,0,0,0-0.01c0-0.01,0.01,0,0.01-0.01c2.96-4.91,4.98-8.55,6.28-11.19c0-0.01,0.01-0.02,0.01-0.02
		c8.91-15.44,21.6-35.49,29.4-39.33c0,0-0.85-1.39-1.55-4.03c0.49,1.29,1.01,2.63,1.55,4.03c12.39,32.26,84.91,42.56,126.1,37.08
		c41.19-5.49,24.29-18.18,3.73-38.3c-20.56-20.12-66.72-18.43-79.75-26.66c-13.03-8.24,7.27-14.14,34.19-10.16
		c26.93,3.98,38.57,32,82.01,39.22c43.44,7.23,82.52-72.7,82.52-72.7c-30.85,7.26-83.83-13.19-85.18-23.75
		c-1.35-10.56,78.75-3.91,91.46-6.16C1950.42,1480.61,1974.03,1457.15,1963.99,1406.23z"/>
	<path opacity="0.5" fill="#AEC3FF" d="M1406.52,1735.82c4.65,10.57,66.06,15.59,95.93-1.43c0,0-16.13,95.17-63.55,100.98
		c-47.42,5.82-68.13-19.77-97.37-15.64c-29.25,4.13-48.55,16.5-32.47,21.07c16.08,4.58,63.59-11.36,91.17,3.27
		c12.68,6.73,24.07,12.05,28.67,17.63c-12.1,0-24.25,0-36.43-0.01c-49.21-0.02-98.97-0.04-148.58-0.08c-0.63-4-1.19-6.18-1.19-6.18
		s-93.18-28.16-68.37-99.74c0,0,22.43-45.53,53.42-62.79c0,0,3.02,97.9,21.21,96.21c18.18-1.69-11.24-108.84-11.24-108.84
		s78.1-61.29,113.12-65.53c0,0-33.95,103.73-16.75,97.62c17.21-6.12,57.55-112.42,57.55-112.42s85.92-36.33,112,13.58
		c26.08,49.91,8.71,81.58-3.83,87.82C1487.27,1707.58,1401.87,1725.25,1406.52,1735.82z"/>
	<path fill="#F8FCFF" d="M1309.39,449.99c0,0,33.37-62.81,113.16-55.83c0,0,115.84-104.68,239.37-13.96
		c0,0,131.31-22.48,228.56,19.46c64.84,27.96,86.25,57.3,86.25,57.3L1309.39,449.99z"/>
	<path fill="#F8FCFF" d="M1826.42,347.16c0,0,17.01-34.2,57.68-30.4c0,0,59.05-57,122.02-7.6c0,0,66.94-12.24,116.51,10.6
		c33.05,15.23,43.97,31.2,43.97,31.2L1826.42,347.16z"/>
	<path fill="#F8FCFF" d="M589.9,524.22c0,0,17.01-34.2,57.68-30.4c0,0,59.05-57,122.02-7.6c0,0,66.94-12.24,116.51,10.6
		c33.05,15.23,43.97,31.2,43.97,31.2L589.9,524.22z"/>
	<g>
		<path fill="#FFB27D" d="M591.76,1300.58c-42.87-10.91-90-77.42-90-77.42l12.07-10.47c12.5,14.73,64.46,40.11,64.46,40.11
			c-0.28-13.48,0.07-25.78,0.93-36.98c5.77-76.08,34.45-101.43,42.27-106.99c1.26-0.9,1.99-1.28,1.99-1.28s0.03,0.55,0.07,1.6
			c0.11,2.26,0.32,6.82,0.53,13.07C625.69,1168.79,627.59,1309.7,591.76,1300.58z"/>
		<path fill="#F99746" d="M626.13,1196.73c-0.1,4.17-0.24,8.35-0.41,12.54c-1.38,33.85-5.06,67.5-13.37,87.19
			c-2.05,4.83-4.36,8.83-7,11.77c-3.83,4.3-8.33,6.38-13.61,5.6c-28.96-4.23-36.51-31.26-38.04-51.36
			c-0.96-12.51,0.42-22.33,0.42-22.33s14.58,8,16.88,5.88c4.74-4.38,6.49-33.49,7.76-56.81c1.67-30.57,2.11-64.93,5.03-70.85
			c8.35-16.91,40.58-16.91,40.58-16.91S627.39,1147.5,626.13,1196.73z"/>
		<path fill="#233862" d="M660.28,1024.04c0,0-23.88,14.07-9.23,41.32c0,0-20.9-3.83-25.42-10.07c0,0,0.53,2.6,1.3,3.91
			c0,0-19.22-4.36-25.5-12.37c-6.29-8.02,24.55-104.08,74.5-79.2c0,0,45.68,8.48,27.79,59.19c-17.89,50.71-0.98,55.19-0.98,55.19
			s-5.32,1.07-7.59,0.47c0,0-2.98-2.14-3.15-4.15c0,0-0.11,3.05,0.5,4.2c0,0-18.71-3.1-26-12.41
			C659.21,1060.81,654.84,1034.04,660.28,1024.04z"/>
		<path fill="#FFB27D" d="M625.8,1105.68c-0.03,0.01-0.05,0.02-0.08,0.03C625.57,1105.7,625.6,1105.68,625.8,1105.68z"/>
		<path fill="#FFB27D" d="M683.83,1088.98c0.7,6.29,1.54,11.93,1.91,14.61c0.84,6.02-56.3,2.1-59.94,2.09
			c2.54-1.1,10.29-25.69,12.75-35.07c2.97-11.38,5.31-23.66,5.31-23.66l40.35,2.55l2.4,0.15c-1.49,5.5-2.55,10.69-3.28,15.52
			c-0.1,0.65-0.19,1.31-0.28,1.94C682.31,1072.46,682.96,1081.21,683.83,1088.98z"/>
		<path fill="#233862" d="M638.29,1042.88c0,0-6.54-20.75-5.22-36.65c0.94-11.36,17.11-50.1,55.98-33.61c0,0,11.43,4.26,20.49,14.63
			c7.2,8.25,16.48,24.39-6.97,55.73l-6.81,10.88L638.29,1042.88z"/>
		<path fill="#ED7D2B" d="M630.94,1199.99l-2.14,68.49c0,0-7.57,12.97-16.45,27.98c-2.28,3.85-4.65,7.84-7,11.77
			c-3.83,4.3-8.33,6.38-13.61,5.6c-28.96-4.23-36.51-31.26-38.04-51.36c-0.96-12.51,0.42-22.33,0.42-22.33s12.67,5.44,14.97,3.31
			c4.74-4.38,8.41-30.92,9.68-54.24l19.77-11.17l27.59,18.69L630.94,1199.99z"/>
		<path fill="#ED975D" d="M683.83,1088.98c-28.22-8.27-40.2-40.87-40.2-40.87c11.94,0.35,27.49,8.64,39.69,17.06
			c-0.1,0.65-0.19,1.31-0.28,1.94C682.31,1072.46,682.96,1081.21,683.83,1088.98z"/>
		<path fill="#FFB27D" d="M685.83,1077.52c0,0-50.99-12.6-42.65-44.24c8.34-31.63,7.37-54.56,40.28-47.86
			c32.91,6.71,36.03,20.44,35.81,31.68C719.05,1028.34,699.31,1079.99,685.83,1077.52z"/>
		<path fill="#233862" d="M722.41,999.12c-15.18-24.01-33.27-26.51-33.36-26.51c-12.96-8.69-30.1,12.63-30.1,12.63
			c-9.4,21.79-29.21,30.46-29.21,30.46s7.74,8.17,30.53,8.33c6.96,0.05,14-3.04,20.44-7.35c-12.46,12.19-26.98,19.5-26.98,19.5
			c27.34-4.81,46.47-34.94,49.86-40.62c3.68,5.92,7.34,12.8,7.53,17.06c0.4,8.72-2.85,25.6,2.13,26.32
			C713.26,1038.95,732.64,1015.3,722.41,999.12z"/>
		<path fill="#FFFFFF" d="M677.87,1057.25c0,0,0.64,4.82,3.71,5.95s11.23,3.2,12.05,2.69c0.83-0.51,3.88-4.27,3.88-4.27
			S684.66,1056.7,677.87,1057.25z"/>
		<path fill="#FFB27D" d="M658.83,1541.14c-0.65,2.71-1.3,5.38-1.93,8.04c-3.84,15.97-7.42,30.79-9.68,43.18
			c-2.93,16.13-3.62,28.13,0.22,33.18c15.83,20.76,0,185.53,0,185.53l-18.02,18.57c0,0-31.33-162.68-39.83-188.17
			c-3.87-11.59-9.49-61.08-14.47-111.6c-0.25-2.53-0.5-5.06-0.74-7.58c-0.86-8.84-1.69-17.64-2.48-26.23
			c-4.46-47.8-7.8-88.74-7.8-88.74s33.23-23.37,63.43-25.97c17.79-1.55,34.52,4.11,42.78,25.97
			C682.35,1439.12,670.15,1494.03,658.83,1541.14z"/>
		<path fill="#ED975D" d="M653.76,1552.08c-23.26-25.36-38.58-61.68-66.97-112.52c-2.41-25.86,17.98-50.44,40.74-58.2
			c17.79-1.55,34.52,4.11,42.78,25.97C682.35,1439.12,665.08,1504.97,653.76,1552.08z"/>
		<path fill="#FFB27D" d="M748.88,1226.94l121.35,31.34v14.17c0,0-120.76-1.42-128.55-14.87
			C733.89,1244.14,748.88,1226.94,748.88,1226.94z"/>
		<path fill="#FFB27D" d="M870.23,1693.98l-5.67,23.42c0,0-164.15-84.79-185.38-101.07c-8.53-6.54-19.8-42.07-30.24-82.26
			c-15.55-59.9-29.25-130.16-29.25-130.16s23.01-88.5,84.61-34.34c36.86,32.41,31.13,94.87,27.09,143.45
			c-2.69,32.59-4.62,58.94,7.6,65.77c23.84,13.31,93.81,74.61,115.96,116.79L870.23,1693.98z"/>
		<path fill="#F99746" d="M808.43,1226.94c7.85,11.15,3.53,32.77-12.94,50.17c-10.23,10.81-24.07,17.2-46.61,13.88
			c-9.82-1.45-27.15-12.43-36.19-30.6c-1.35-2.71-4.78-10.68-4.78-10.68s-12.5,12.51-12.96,14.88c-0.21,1.06-1.29,10.52-1.46,11.81
			c-0.19,1.56,0.92,7.31,0.92,7.31s-59.71,26.11-109.07-3.62c0,0-11.68-75.82-3.97-140.68c1.48-12.43,33.2-29.39,43.01-37.97
			c2.2-1.93,4.44-7.75,3.84-11.49c-0.5-3.17,3.14-8.5,6.2-7.53c5.9,1.89,22.59,10.15,34.34,7c5.85-1.55,13.27-8.32,18.94-6.77
			c6.93,1.89-0.39,18.58,3.54,18.79c5.41,0.27,29.73,0.65,37.11,10.83c6.04,8.34,9.25,23.9,19.79,53.34c0,0,0.01,0.02,0.02,0.08
			C767.92,1220.95,796.91,1210.58,808.43,1226.94z"/>
		<path fill="#ED7D2B" d="M707.91,1249.72c0,0-6.01-14.04-10.39-37.49c-1.24-6.62-52.13,44.23-39.38,64.88
			C670.88,1297.77,707.91,1249.72,707.91,1249.72z"/>
		<path fill="#B0D0FF" d="M781.26,1461.56c0,0-15.99,4.58-40.01,9.64c-49.63,10.47-133.57,23.02-181.64,1.58
			c0,0,3.07-70.7,11.43-124.15c6.68-42.76,12.88-70.82,12.88-70.82s44.69,11.2,90.07,2.51c0.43-0.08,0.86-0.16,1.29-0.25
			c5.94-1.18,11.89-2.72,17.74-4.67c0,0,34.26,49.11,51.93,83.27C757.18,1382.32,781.26,1461.56,781.26,1461.56z"/>
		<path fill="#98BAF4" d="M781.26,1461.56c0,0-15.99,4.58-40.01,9.64c-5.17,0.56-10.53,1.08-16.09,1.58
			c-80.55-102.85-50.85-192.21-50.85-192.21c0.32-0.17,0.65-0.34,0.97-0.5c5.94-1.18,11.89-2.72,17.74-4.67
			c0,0,34.26,49.11,51.93,83.27C757.18,1382.32,781.26,1461.56,781.26,1461.56z"/>
		<path fill="#FFB27D" d="M870.23,1258.29c0,0,22.26-10.97,31.11-12.03c8.85-1.06,23.72-1.42,23.72,0s-15.93,11.31-20.18,12.03
			c-4.25,0.72-12.39,6.73-9.91,7.44c2.48,0.71,15.58-2.3,15.75,0c0.18,2.3-7.97,3.72-9.38,5.49c-1.42,1.77-6.37,3.89-14.34,2.83
			c-7.97-1.06-16.78-1.59-16.78-1.59V1258.29z"/>
		<path fill="#2B478B" d="M902.68,1703.07c0,0-0.05-0.01-0.15-0.03c-0.74-0.18-4.11-1.3-6.35-6.67c-1.47-3.54-1.92-6.44-3.27-9.94
			l-5.54-9.57c-5.8-7.63-7.83-5.85-7.83-5.85s-1.52,1.94-3.76,4.51c-3.7,4.23-9.37,10.13-13.38,11.64
			c-2.85,1.07-4.64,2.84-5.73,4.49c-1.4,2.07-1.71,3.93-1.71,3.93s11.9,2.08,10.87,7.94c-2.02,11.35-1.54,13.42-1.34,13.79
			l0.07,0.08c0,0,20.3,10.63,26.79,12.71c11.55,3.7,17.59,11.55,21.33,15.14c1.52,1.45,3.62,2.12,5.68,1.79
			c3.05-0.48,7-1.46,7.86-3.33L902.68,1703.07z"/>
		<path fill="#2B478B" d="M665.56,1837.9l-9.72,5.26c-3.53,1.25-6.45,1.61-10.03,2.98c-5.43,2.08-9.26,6.17-9.44,6.91
			c-2.74,11.15-6.76,10.81-6.76,10.81h-38.94c-1.84-0.92,1.28-8.81,2.78-10.28c3.69-3.64,14.75-1.81,18.78-13.25
			c2.27-6.43,13.48-26.41,13.48-26.41l0.08-0.07c0.38-0.2,2.46-0.61,13.75,1.74c5.83,1.21,8.25-10.63,8.25-10.63
			s1.86,0.37,3.88,1.82c1.61,1.14,3.33,2.98,4.32,5.86c1.4,4.06,7.13,9.9,11.25,13.71c2.5,2.31,4.4,3.88,4.4,3.88
			S673.36,1832.33,665.56,1837.9z"/>
		<path fill="#FFB27D" d="M513.84,1212.69c0,0,1.8-12.33-1.38-20.46c-3.36-8.57-4.1-17.89-6.79-14.19
			c-2.69,3.7-0.42,14.14-2.78,13.81c-1.04-0.15-4.22-1.95-5.48-6.97c-1.59-6.38,2.28-14.75-3.03-13.93
			c-5.06,0.79-11.85,24.31-8.49,30.7c3.36,6.39,15.88,21.51,15.88,21.51L513.84,1212.69z"/>
		<g>
			<path fill="#EA7147" d="M631.37,1291c-33.1,0-46.75-11.39-47.76-12.17l-2.14-15.59c0.32,0.23,44.74,26.91,113.48,1.36
				l-1.46,11.81C667.05,1286.24,648.56,1291,631.37,1291z"/>
		</g>
	</g>
	<g>
		<path fill="#FFB27D" d="M927.09,1095.78c5.02,22.16,14.86,64.98,52.25,116.65c26.96,37.26,78.23,92.36,128.42,164.37
			c36.19,51.93,57.19,82.57,68.73,99.58c8.21,12.1,13.88,25.57,16.71,39.69l-86.83,260.83l206.42,18.06
			c0,0,77.77-271.69,77.84-385.64c0-0.04-0.01-0.08,0.01-0.1c-0.01-13.21,0.12-27.29,0.45-42.34
			c1.47-69.73,21.73-124.67-179.85-126.59c-0.84,0-1.61-0.6-2.52-0.92c-7.86-3.04-19.86-8.52-37.55-22.78
			c-2.98-2.39-6.11-5.02-9.39-7.91c-19.68-17.39-38.35-31.09-55.91-41.92C1014.23,1110.09,922.52,1075.64,927.09,1095.78z"/>
		<path fill="#FFB27D" d="M912.74,963.52c3.02-32.77,27.42-135.85,27.42-135.85s23.88,5.49,32.63,20.78
			c25.6,44.75,17.23,132.97,15.88,133.49c-0.04,0,41.64,80.11,48.71,131.63c0.01,0.04,0,0,0,0s110.53,59.98,133.81,103.02
			c1.41,2.62,2.54,5.2,3.36,7.68c3.16,9.67,4.5,22.91,4.32,37.62c-0.78,52.14-21.38,122.66-52.17,117.23
			c-7.6-1.36-185.43-200.17-192.79-235.18C932.19,1135.68,911.13,981,912.74,963.52z"/>
		<path fill="#FFB27D" d="M1199.96,1186.58c0,0,5.26,50.59-47.12,6.22l-4.23,58.14l72.95,38.85l24.76-42.66L1199.96,1186.58z"/>
		<path fill="#FFC69F" d="M945.31,878.59c1-1.91,1.68-4.02,2.01-6.25c0,0,2.79-19.97,4.78-34.62c1.32-9.66-5.16-17.48-8.84-18.94
			c-2.33-0.92-16.63,36.53-17.19,71.79C934.47,890.71,941.7,885.53,945.31,878.59z"/>
		<path fill="#F6A56E" d="M1037.38,1113.58c23.86,7.82,169.21,106.66,177.07,109.71c18.17,22.95,21.24,56.95,12.36,60.73
			c-11.99,5.14-38.68-5.16-56.49-21.52c-23.88-21.9-30.8-50.76-37.93-66.83c-3.22-7.23-24.37-17.74-32.38-28.31
			C1078.94,1139.59,1040.11,1115.72,1037.38,1113.58z"/>
		<g>
			<path fill="#FFB27D" d="M1315.5,1208c0,0-189.23-152.36-210.14-191.05c0,0-33.3,12.04-20.01,62.59
				c13.29,50.55,106.34,141.3,111.9,177.1c20.88,134.5,97.28,175.89,97.28,175.89S1501.92,1358.47,1315.5,1208z"/>
			<path fill="#FFC69F" d="M1117.53,1073.25c-1.74-1.37-3.28-3.03-4.54-4.94c0,0-11.2-17.16-19.38-29.77
				c-5.39-8.31-3.68-19.11,4.1-25.47c1.91-1.56,3.05-2.34,3.05-2.34c9.19,7.93,32.92,22.72,48.72,54.71
				C1140.76,1071.69,1123.83,1078.2,1117.53,1073.25z"/>
		</g>
		<g>
			<path fill="#F99746" d="M1384.66,1581.31c0,0-0.91,25.15-2.44,64.99c-0.04,1.04-0.08,2.1-0.12,3.17
				c-2.09,54.49-5.27,134.9-8.86,215.96c-119.92-0.07-238.54-0.17-351.39-0.31c33.3-66.53,89.94-174.62,124.3-239.82
				c16.3-30.96,27.57-52.26,28.94-54.82c0.09-0.17,0.14-0.26,0.14-0.26c1.91-2.76,4.03-5.27,6.35-7.52
				c3.18-3.13,6.71-5.8,10.57-8.04c31.75-18.65,84.48-9.78,126.73,2.54c19.47,5.67,36.7,12.07,48.64,16.84
				c8.12,3.26,13.8,5.76,16.05,6.78C1384.29,1581.14,1384.66,1581.31,1384.66,1581.31z"/>
			<path fill="#ED7D2B" d="M1382.16,1649.46c0,0-83.51,22.56-131.76,23.29l-17.81-33.16l-15.58,28.04c0,0-60.96-18.51-73.38-36.62
				l42.48-76.48l197.91,3.96L1382.16,1649.46z"/>
			<path fill="#F3F8FF" d="M1378.69,1516.19c0,0,25.73,59.76,31.18,130.6c0,0-100.61,11.17-148.51,5.26l-20.97-83.11l-30.53,72.22
				c0,0-55.42-7.19-74.68-22.14c0,0,35.87-61.44,58.46-102.15C1193.64,1516.88,1286.88,1544.98,1378.69,1516.19z"/>
			<path fill="#F99746" d="M1317.84,1630.73c2.49-4.59,0.57-10.23-4.28-12.6c-4.86-2.37-10.81-0.57-13.3,4.02s-0.57,10.23,4.28,12.6
				C1309.39,1637.12,1315.35,1635.32,1317.84,1630.73z"/>
		</g>
	</g>
	<g>
		<path fill="#FFB27D" d="M1982.42,1095.78c-5.02,22.16-14.86,64.98-52.25,116.65c-26.96,37.26-78.23,92.36-128.42,164.37
			c-36.19,51.93-57.19,82.57-68.73,99.58c-8.21,12.1-13.88,25.57-16.71,39.69l86.83,260.83l-206.42,18.06
			c0,0-77.77-271.69-77.84-385.64c0-0.04,0.01-0.08-0.01-0.1c0.01-13.21-0.12-27.29-0.45-42.34
			c-1.47-69.73-21.73-124.67,179.85-126.59c0.84,0,1.61-0.6,2.52-0.92c7.86-3.04,19.86-8.52,37.55-22.78
			c2.98-2.39,6.11-5.02,9.39-7.91c19.68-17.39,38.35-31.09,55.91-41.92C1895.28,1110.09,1986.99,1075.64,1982.42,1095.78z"/>
		<path fill="#FFB27D" d="M1996.77,963.52c-3.02-32.77-27.42-135.85-27.42-135.85s-23.88,5.49-32.63,20.78
			c-25.6,44.75-17.23,132.97-15.88,133.49c0.04,0-41.64,80.11-48.71,131.63c0,0.04,0,0,0,0s-110.53,59.98-133.81,103.02
			c-1.41,2.62-2.54,5.2-3.36,7.68c-3.16,9.67-4.5,22.91-4.31,37.62c0.78,52.14,21.38,122.66,52.17,117.23
			c7.59-1.36,185.43-200.17,192.79-235.18C1977.32,1135.68,1998.38,981,1996.77,963.52z"/>
		<path fill="#FFB27D" d="M1709.55,1186.58c0,0-5.26,50.59,47.12,6.22l4.24,58.14l-72.95,38.85l-24.76-42.66L1709.55,1186.58z"/>
		<path fill="#FFC69F" d="M1964.2,878.59c-1-1.91-1.68-4.02-2.01-6.25c0,0-2.79-19.97-4.78-34.62c-1.32-9.66,5.16-17.48,8.84-18.94
			c2.33-0.92,16.63,36.53,17.19,71.79C1975.04,890.71,1967.81,885.53,1964.2,878.59z"/>
		<path fill="#F6A56E" d="M1872.13,1113.58c-23.86,7.82-169.21,106.66-177.07,109.71c-18.17,22.95-21.24,56.95-12.36,60.73
			c11.99,5.14,38.68-5.16,56.49-21.52c23.88-21.9,30.8-50.76,37.93-66.83c3.22-7.23,24.37-17.74,32.38-28.31
			C1830.57,1139.59,1869.4,1115.72,1872.13,1113.58z"/>
		<g>
			<path fill="#FFB27D" d="M1594.01,1208c0,0,189.23-152.36,210.14-191.05c0,0,33.3,12.04,20.01,62.59
				c-13.29,50.55-106.34,141.3-111.9,177.1c-20.88,134.5-97.28,175.89-97.28,175.89S1407.59,1358.47,1594.01,1208z"/>
			<path fill="#FFC69F" d="M1791.98,1073.25c1.74-1.37,3.28-3.03,4.54-4.94c0,0,11.2-17.16,19.38-29.77
				c5.39-8.31,3.68-19.11-4.09-25.47c-1.91-1.56-3.05-2.34-3.05-2.34c-9.19,7.93-34.33,24.06-50.13,56.05
				C1766.23,1070.13,1785.68,1078.2,1791.98,1073.25z"/>
		</g>
		<g>
			<path fill="#F99746" d="M1887.94,1865.68c-111.9-0.01-230.67-0.05-351.67-0.1c-3.58-81.11-6.76-161.6-8.85-216.11
				c-0.05-1.07-0.09-2.13-0.12-3.17c-1.53-39.84-2.44-64.99-2.44-64.99s0.37-0.17,1.09-0.5c2.25-1.02,7.93-3.52,16.05-6.78
				c11.95-4.77,29.18-11.17,48.64-16.84c42.25-12.32,94.98-21.18,126.73-2.54c3.85,2.24,7.38,4.91,10.57,8.04
				c2.33,2.25,4.44,4.76,6.35,7.52c0,0,0.05,0.09,0.14,0.26c1.37,2.56,12.64,23.86,28.94,54.82
				C1797.81,1690.68,1854.67,1799.2,1887.94,1865.68z"/>
			<path fill="#ED7D2B" d="M1527.35,1649.46c0,0,83.51,22.56,131.76,23.29l17.81-33.16l15.58,28.04c0,0,60.96-18.51,73.38-36.62
				l-42.48-76.48l-197.91,3.96L1527.35,1649.46z"/>
			<path fill="#F3F8FF" d="M1530.82,1516.19c0,0-25.73,59.76-31.18,130.6c0,0,100.61,11.17,148.51,5.26l20.97-83.11l30.53,72.22
				c0,0,55.42-7.19,74.68-22.14c0,0-35.87-61.44-58.46-102.15C1715.87,1516.88,1622.63,1544.98,1530.82,1516.19z"/>
			<path fill="#F99746" d="M1591.67,1630.73c-2.49-4.59-0.58-10.23,4.28-12.6c4.86-2.37,10.81-0.57,13.3,4.02s0.57,10.23-4.28,12.6
				C1600.12,1637.12,1594.16,1635.32,1591.67,1630.73z"/>
		</g>
	</g>
	<g>
		<g>
			<path fill="#A8D29F" d="M1827.52,1768.96c6.73,2.73,30.79,0.52,31.56-1.4c0.78-1.92-14.95-20.25-21.68-22.98
				c-6.73-2.73-14.4,0.52-17.13,7.25C1817.54,1758.56,1820.79,1766.23,1827.52,1768.96z"/>
			<path fill="#A8D29F" d="M1888.19,1780.44c-3.78,6.2-5.49,30.3-3.72,31.38s22.4-11.49,26.18-17.69c3.78-6.2,1.82-14.3-4.39-18.08
				S1891.97,1774.23,1888.19,1780.44z"/>
			<path fill="#A8D29F" d="M1855.78,1827.59c6.92,2.21,30.74-1.82,31.37-3.8c0.63-1.98-16.45-19.05-23.37-21.26
				c-6.92-2.21-14.32,1.61-16.53,8.53S1848.86,1825.38,1855.78,1827.59z"/>
			<g>
				<path fill="#A8D29F" d="M1890.81,1850.91c-0.02-0.55-2.69-55.08-32.54-83.23l0.63-0.67c30.13,28.42,32.81,83.32,32.83,83.87
					L1890.81,1850.91z"/>
			</g>
		</g>
		<g>
			<path fill="#A8D29F" d="M1990.47,1770.13c-4.19,2.78-20.83,4.61-21.62,3.42c-0.79-1.2,7.35-15.82,11.54-18.6
				c4.19-2.78,9.85-1.64,12.63,2.55S1994.67,1767.35,1990.47,1770.13z"/>
			<path fill="#A8D29F" d="M1950.87,1786.32c3.42,3.69,7.92,19.81,6.86,20.79c-1.05,0.98-16.8-4.7-20.22-8.39
				c-3.42-3.69-3.21-9.45,0.48-12.88S1947.44,1782.64,1950.87,1786.32z"/>
			<path fill="#A8D29F" d="M1979.4,1813.85c-4.39,2.46-21.12,3.02-21.82,1.76s8.53-15.21,12.92-17.67s9.95-0.89,12.4,3.51
				C1985.36,1805.84,1983.79,1811.39,1979.4,1813.85z"/>
			<g>
				<path fill="#A8D29F" d="M1958.84,1834.53c-0.06-0.38-5.8-37.77,10.58-61.01l-0.52-0.37c-16.53,23.46-10.75,61.11-10.68,61.48
					L1958.84,1834.53z"/>
			</g>
		</g>
		<g>
			<g>
				<path fill="#A8D29F" d="M1929.28,1847.73l-1.9-0.3c-7.48-96.8-37.04-166.27-37.46-167.21l1.73-0.75
					C1892.07,1680.42,1921.84,1750.34,1929.28,1847.73z"/>
			</g>
			<g>
				<path fill="#CCDBFD" d="M1869.87,1670.47c3.64,4.13,20.71,10.77,21.89,9.73c1.18-1.04-3.29-18.8-6.94-22.93
					s-9.95-4.52-14.08-0.88C1866.62,1660.04,1866.22,1666.34,1869.87,1670.47z"/>
				<path fill="#CCDBFD" d="M1896.03,1656.07c-3.29,4.42-6.28,22.49-5.02,23.43s17.72-7.09,21.02-11.51
					c3.29-4.42,2.38-10.67-2.04-13.96C1905.57,1650.74,1899.32,1651.66,1896.03,1656.07z"/>
				<path fill="#CCDBFD" d="M1915.66,1675.29c-5.31-1.45-23.23,2.38-23.64,3.89c-0.41,1.52,13.08,13.9,18.4,15.35
					c5.31,1.45,10.8-1.69,12.25-7C1924.11,1682.22,1920.98,1676.74,1915.66,1675.29z"/>
				<path fill="#CCDBFD" d="M1903.56,1699.24c-0.53-5.48-10.46-20.88-12.02-20.72c-1.56,0.15-8.36,17.16-7.83,22.64
					c0.53,5.48,5.4,9.5,10.89,8.97C1900.08,1709.6,1904.09,1704.73,1903.56,1699.24z"/>
				<path fill="#CCDBFD" d="M1876.39,1698.07c4.88-2.56,15.38-17.57,14.65-18.96c-0.73-1.39-19.05-1.26-23.92,1.3
					c-4.88,2.56-6.75,8.59-4.19,13.47S1871.51,1700.63,1876.39,1698.07z"/>
				<path fill="#163560" d="M1887.8,1678.59c0.29-1.79,1.97-3.01,3.76-2.73c1.79,0.29,3.01,1.97,2.73,3.76
					c-0.29,1.79-1.97,3.01-3.76,2.73C1888.73,1682.07,1887.51,1680.38,1887.8,1678.59z"/>
			</g>
			<path fill="#A8D29F" d="M1928.74,1748.75c-5.42,6.67-11.27,34.63-9.37,36.17s28.08-9.88,33.5-16.55
				c5.42-6.67,4.41-16.46-2.25-21.88C1943.95,1741.08,1934.16,1742.09,1928.74,1748.75z"/>
		</g>
		<g>
			<g>
				<path fill="#A8D29F" d="M1821.46,1857.63l-1.29-0.03c-13.46-63.58-39.17-107.08-39.53-107.67l1.08-0.65
					C1782.08,1749.88,1807.98,1793.66,1821.46,1857.63z"/>
			</g>
			<g>
				<path fill="#CCDBFD" d="M1766.48,1745.22c2.78,2.42,14.69,5.33,15.38,4.54c0.69-0.79-3.83-12.19-6.62-14.61
					c-2.78-2.42-7-2.13-9.42,0.65C1763.41,1738.59,1763.7,1742.8,1766.48,1745.22z"/>
				<path fill="#CCDBFD" d="M1782.57,1733.37c-1.8,3.22-2.19,15.47-1.28,15.99s11.14-6.26,12.93-9.48s0.64-7.29-2.58-9.08
					C1788.44,1729,1784.37,1730.15,1782.57,1733.37z"/>
				<path fill="#CCDBFD" d="M1797.29,1744.4c-3.65-0.49-15.2,3.62-15.34,4.66c-0.14,1.04,9.9,8.08,13.55,8.57
					c3.65,0.49,7.02-2.07,7.51-5.72C1803.5,1748.26,1800.94,1744.9,1797.29,1744.4z"/>
				<path fill="#CCDBFD" d="M1791.36,1761.36c-0.83-3.59-8.77-12.93-9.8-12.7c-1.03,0.24-4.04,12.12-3.21,15.71s4.42,5.83,8.01,5
					C1789.96,1768.54,1792.19,1764.95,1791.36,1761.36z"/>
				<path fill="#CCDBFD" d="M1773.23,1762.96c3.01-2.13,8.67-13.01,8.06-13.87c-0.61-0.86-12.75,0.83-15.76,2.96
					c-3.01,2.13-3.73,6.29-1.6,9.3S1770.22,1765.09,1773.23,1762.96z"/>
				<path fill="#163560" d="M1779.09,1749.04c0.03-1.21,1.04-2.17,2.26-2.14s2.17,1.04,2.14,2.26s-1.04,2.17-2.26,2.14
					S1779.06,1750.25,1779.09,1749.04z"/>
			</g>
			<path fill="#A8D29F" d="M1812.41,1792c-3.01,4.9-4.44,23.97-3.04,24.83c1.4,0.86,17.77-9.02,20.78-13.92s1.48-11.31-3.42-14.32
				C1821.84,1785.58,1815.42,1787.1,1812.41,1792z"/>
		</g>
		<g>
			<g>
				<path fill="#A8D29F" d="M2026.83,1849.22l1.69-0.27c6.66-86.21,32.99-148.08,33.36-148.92l-1.54-0.67
					C2059.97,1700.22,2033.45,1762.5,2026.83,1849.22z"/>
			</g>
			<g>
				<path fill="#CCDBFD" d="M2079.74,1691.36c-3.25,3.68-18.45,9.59-19.5,8.67c-1.05-0.93,2.93-16.75,6.18-20.42
					s8.86-4.03,12.54-0.78C2082.63,1682.07,2082.98,1687.68,2079.74,1691.36z"/>
				<path fill="#CCDBFD" d="M2056.44,1678.54c2.93,3.93,5.59,20.03,4.47,20.87c-1.12,0.84-15.78-6.32-18.72-10.25
					c-2.93-3.93-2.12-9.5,1.81-12.43S2053.51,1674.6,2056.44,1678.54z"/>
				<path fill="#CCDBFD" d="M2038.95,1695.65c4.73-1.29,20.69,2.12,21.05,3.47c0.37,1.35-11.65,12.38-16.38,13.67
					c-4.73,1.29-9.62-1.5-10.91-6.23C2031.43,1701.82,2034.22,1696.94,2038.95,1695.65z"/>
				<path fill="#CCDBFD" d="M2049.73,1716.99c0.47-4.88,9.31-18.59,10.71-18.46s7.45,15.28,6.97,20.17
					c-0.47,4.88-4.81,8.46-9.7,7.99C2052.84,1726.21,2049.26,1721.87,2049.73,1716.99z"/>
				<path fill="#CCDBFD" d="M2073.93,1715.94c-4.34-2.28-13.7-15.64-13.05-16.88c0.65-1.24,16.96-1.13,21.31,1.15
					c4.34,2.28,6.02,7.65,3.74,11.99C2083.64,1716.54,2078.27,1718.22,2073.93,1715.94z"/>
				<path fill="#163560" d="M2063.77,1698.59c-0.25-1.6-1.75-2.68-3.35-2.43c-1.6,0.25-2.68,1.75-2.43,3.35
					c0.25,1.59,1.75,2.68,3.35,2.43C2062.94,1701.69,2064.02,1700.19,2063.77,1698.59z"/>
			</g>
			<path fill="#A8D29F" d="M2022.9,1784.17c4.83,5.94,10.04,30.84,8.34,32.22c-1.69,1.38-25.01-8.8-29.84-14.74
				s-3.93-14.66,2.01-19.49C2009.35,1777.33,2018.07,1778.23,2022.9,1784.17z"/>
		</g>
		<path fill="#A8D29F" d="M1753.33,1864.29c0,0,9.56-25.14,44.29-26.72c34.72-1.58,58.63,18.94,87.32,9.47
			c28.69-9.47,76.17-30.85,121.08-16.61c44.92,14.24,52.49,33.86,52.49,33.86H1753.33z"/>
	</g>
	<path fill="#A8D29F" d="M470.7,1864.11h59.97c3.21-2.73-2.22-8.92-7.91-9.33c-2.47-0.19-5.59,0.33-9.15,1.08
		c-0.82-10.96-5.54-60.24-23.3-58.26c-19.97,2.22,0,21.7,5.65,33.23c4.18,8.54,8.59,20.8,10.61,26.58c-1.62,0.35-3.3,0.7-5.01,1.01
		c-2.65-8.13-12.5-35.47-25.02-33.87c-14.71,1.87-8.8,12.83,1.63,19.33c7.65,4.79,17.04,11.58,21.5,14.87
		c-3.78,0.62-7.73,1.03-11.73,0.94C477.66,1859.45,472.64,1862.48,470.7,1864.11z"/>
	<path fill="#A8D29F" d="M1092.84,1862.4h59.97c3.21-2.73-2.22-8.92-7.91-9.33c-2.47-0.19-5.59,0.33-9.15,1.08
		c-0.82-10.96-5.54-60.24-23.3-58.26c-19.97,2.22,0,21.7,5.65,33.24c4.18,8.54,8.59,20.8,10.61,26.58c-1.62,0.35-3.3,0.7-5.01,1.01
		c-2.65-8.13-12.5-35.47-25.02-33.87c-14.71,1.87-8.79,12.83,1.63,19.33c7.65,4.79,17.04,11.59,21.5,14.87
		c-3.78,0.62-7.73,1.03-11.73,0.94C1099.8,1857.74,1094.78,1860.77,1092.84,1862.4z"/>
	<g>
		<g>
			<path fill="#A8D29F" d="M1145.3,1856.09l1.52-0.24c5.98-77.36,29.6-132.88,29.93-133.63l-1.38-0.6
				C1175.04,1722.38,1151.25,1778.26,1145.3,1856.09z"/>
		</g>
		<g>
			<path fill="#CCDBFD" d="M1192.78,1714.43c-2.91,3.3-16.55,8.61-17.5,7.78c-0.94-0.83,2.63-15.03,5.55-18.33
				c2.91-3.3,7.95-3.62,11.25-0.7C1195.38,1706.09,1195.7,1711.13,1192.78,1714.43z"/>
			<path fill="#CCDBFD" d="M1171.88,1702.93c2.63,3.53,5.02,17.97,4.01,18.72c-1.01,0.75-14.16-5.67-16.79-9.2
				c-2.63-3.53-1.9-8.52,1.63-11.15C1164.25,1698.67,1169.25,1699.4,1171.88,1702.93z"/>
			<path fill="#CCDBFD" d="M1156.19,1718.28c4.25-1.16,18.56,1.9,18.89,3.11c0.33,1.21-10.45,11.11-14.7,12.27
				c-4.25,1.16-8.63-1.35-9.79-5.59C1149.44,1723.82,1151.94,1719.44,1156.19,1718.28z"/>
			<path fill="#CCDBFD" d="M1165.86,1737.43c0.42-4.38,8.36-16.68,9.61-16.56c1.25,0.12,6.68,13.71,6.26,18.1s-4.32,7.59-8.7,7.17
				S1165.44,1741.81,1165.86,1737.43z"/>
			<path fill="#CCDBFD" d="M1187.57,1736.49c-3.9-2.05-12.29-14.04-11.71-15.15s15.22-1.01,19.12,1.04c3.9,2.05,5.4,6.86,3.35,10.76
				S1191.47,1738.53,1187.57,1736.49z"/>
			<path fill="#233862" d="M1178.46,1720.92c-0.23-1.43-1.57-2.41-3-2.18c-1.43,0.23-2.41,1.57-2.18,3s1.57,2.41,3.01,2.18
				C1177.71,1723.7,1178.68,1722.35,1178.46,1720.92z"/>
		</g>
		<path fill="#A8D29F" d="M1151.35,1757.32c3.79,4.66,7.87,24.19,6.54,25.27c-1.33,1.08-19.62-6.9-23.41-11.56
			c-3.79-4.66-3.08-11.5,1.58-15.29S1147.56,1752.66,1151.35,1757.32z"/>
		<path fill="#A8D29F" d="M1170.99,1795.54c-6.72,3.28-21.57,23.2-20.63,25.11c0.93,1.92,25.78,2.48,32.49-0.79
			c6.72-3.27,9.51-11.37,6.23-18.09C1185.8,1795.05,1177.7,1792.26,1170.99,1795.54z"/>
	</g>
	<path fill="#A8D29F" d="M2634.48,1861.99h-59.97c-3.21-2.73,2.22-8.92,7.9-9.33c2.47-0.19,5.59,0.33,9.15,1.08
		c0.83-10.96,5.54-60.24,23.3-58.26c19.97,2.22,0,21.7-5.65,33.23c-4.18,8.54-8.59,20.8-10.61,26.58c1.62,0.35,3.3,0.7,5.02,1.01
		c2.65-8.13,12.5-35.47,25.02-33.87c14.71,1.87,8.79,12.83-1.63,19.33c-7.65,4.79-17.04,11.58-21.5,14.87
		c3.78,0.62,7.73,1.03,11.73,0.94C2627.53,1857.33,2632.54,1860.36,2634.48,1861.99z"/>
	<g>
		<g>
			<g>
				<path fill="#A8D29F" d="M725.9,1857.8l-1.32-0.21c-5.21-67.38-25.78-115.73-26.07-116.39l1.2-0.52
					C700,1741.34,720.73,1790.02,725.9,1857.8z"/>
			</g>
			<g>
				<path fill="#CCDBFD" d="M684.55,1734.42c2.54,2.87,14.42,7.5,15.24,6.77c0.82-0.72-2.29-13.09-4.83-15.96s-6.92-3.15-9.8-0.61
					C682.29,1727.16,682.01,1731.54,684.55,1734.42z"/>
				<path fill="#CCDBFD" d="M702.76,1724.4c-2.29,3.07-4.37,15.65-3.5,16.31c0.88,0.65,12.34-4.94,14.63-8.01
					c2.29-3.07,1.66-7.42-1.42-9.72C709.4,1720.69,705.05,1721.32,702.76,1724.4z"/>
				<path fill="#CCDBFD" d="M716.42,1737.77c-3.7-1.01-16.17,1.66-16.46,2.71s9.11,9.68,12.8,10.69c3.7,1.01,7.52-1.17,8.52-4.87
					C722.31,1742.6,720.12,1738.78,716.42,1737.77z"/>
				<path fill="#CCDBFD" d="M708,1754.45c-0.37-3.82-7.28-14.53-8.37-14.43c-1.09,0.11-5.82,11.95-5.45,15.76
					c0.37,3.82,3.76,6.61,7.58,6.24S708.37,1758.26,708,1754.45z"/>
				<path fill="#CCDBFD" d="M689.09,1753.63c3.39-1.78,10.71-12.23,10.2-13.2c-0.51-0.97-13.26-0.88-16.65,0.9
					c-3.39,1.78-4.7,5.98-2.92,9.37C681.5,1754.1,685.69,1755.41,689.09,1753.63z"/>
			</g>
			<path fill="#233862" d="M697.03,1740.07c0.2-1.25,1.37-2.1,2.62-1.9c1.25,0.2,2.1,1.37,1.9,2.62c-0.2,1.25-1.37,2.1-2.62,1.9
				C697.68,1742.49,696.83,1741.32,697.03,1740.07z"/>
			<path fill="#A8D29F" d="M719.68,1759.89c-3.77,4.64-7.84,24.1-6.52,25.18c1.32,1.08,19.55-6.88,23.32-11.52
				c3.77-4.64,3.07-11.46-1.57-15.23C730.27,1754.54,723.45,1755.25,719.68,1759.89z"/>
			<path fill="#A8D29F" d="M710.4,1815.79c3.92,1.91,12.58,13.53,12.03,14.65c-0.54,1.12-15.03,1.45-18.95-0.46
				c-3.92-1.91-5.54-6.63-3.63-10.55C701.76,1815.5,706.48,1813.88,710.4,1815.79z"/>
		</g>
		<g>
			<g>
				<path fill="#A8D29F" d="M763.66,1857.8l1.52-0.24c5.98-77.36,29.6-132.88,29.93-133.63l-1.38-0.6
					C793.4,1724.09,769.6,1779.97,763.66,1857.8z"/>
			</g>
			<g>
				<path fill="#CCDBFD" d="M811.14,1716.14c-2.91,3.3-16.55,8.61-17.5,7.78c-0.94-0.83,2.63-15.03,5.55-18.33
					c2.91-3.3,7.95-3.61,11.25-0.7C813.74,1707.8,814.05,1712.84,811.14,1716.14z"/>
				<path fill="#CCDBFD" d="M790.23,1704.64c2.63,3.53,5.02,17.97,4.01,18.72c-1.01,0.75-14.16-5.67-16.79-9.2
					c-2.63-3.53-1.9-8.52,1.63-11.15C782.61,1700.38,787.6,1701.11,790.23,1704.64z"/>
				<path fill="#CCDBFD" d="M774.54,1719.99c4.25-1.16,18.56,1.9,18.89,3.11c0.33,1.21-10.45,11.11-14.7,12.27
					c-4.25,1.16-8.63-1.35-9.79-5.59C767.79,1725.53,770.3,1721.15,774.54,1719.99z"/>
				<path fill="#CCDBFD" d="M784.21,1739.14c0.42-4.38,8.36-16.68,9.61-16.56c1.25,0.12,6.68,13.71,6.26,18.1
					c-0.42,4.38-4.32,7.59-8.7,7.17C787,1747.42,783.79,1743.52,784.21,1739.14z"/>
				<path fill="#CCDBFD" d="M805.93,1738.2c-3.9-2.05-12.29-14.04-11.71-15.15c0.58-1.11,15.22-1.01,19.12,1.04
					c3.9,2.05,5.4,6.87,3.35,10.76C814.64,1738.74,809.83,1740.24,805.93,1738.2z"/>
				<path fill="#233862" d="M796.81,1722.63c-0.23-1.43-1.57-2.41-3.01-2.18c-1.43,0.23-2.41,1.57-2.18,3
					c0.23,1.43,1.57,2.41,3.01,2.18C796.06,1725.41,797.04,1724.07,796.81,1722.63z"/>
			</g>
			<path fill="#A8D29F" d="M764.09,1778.71c4.33,5.33,9.01,27.67,7.49,28.91c-1.52,1.24-22.44-7.9-26.77-13.22
				c-4.33-5.33-3.52-13.16,1.8-17.49C751.93,1772.57,759.76,1773.38,764.09,1778.71z"/>
			<path fill="#A8D29F" d="M781.46,1809.56c-4.5,2.19-14.44,15.53-13.82,16.82c0.63,1.28,17.26,1.66,21.76-0.53
				c4.5-2.19,6.37-7.62,4.17-12.12C791.38,1809.24,785.96,1807.37,781.46,1809.56z"/>
		</g>
		<path fill="#A8D29F" d="M694.16,1864.11c0,0,18.47-24.41,44.75-15.48c26.27,8.93,61.29,0.81,61.2,13.04L694.16,1864.11z"/>
	</g>
	<g>
		<path fill="#FFB27D" d="M2126.88,1109.6c0,0-3.87-17.37-12.5-23.29c-8.64-5.92-21.7-3.58-33.9-10.3
			c-12.2-6.73-19.59-10.85-18.81-4.93c0.78,5.92,14.2,20.69,23.37,24.59c9.17,3.9,19.53,5.72,22.48,11.85
			c2.95,6.13,3.32,11.75,3.32,11.75L2126.88,1109.6z"/>
		<path fill="#FFB27D" d="M2106.38,1091.5c0,0-19.75-15.56-21.93-18.61c-2.17-3.05,8.97,0.31,15.22,3.82
			c6.25,3.51,14.7,9.6,14.7,9.6L2106.38,1091.5z"/>
		<path fill="#ED7D2B" d="M2282.27,1124.41c-3.84,0.84-93.44,65.56-104.28,53.3c-3.11-3.52-49.61-73.05-49.61-73.05
			s-20.02,4.79-23.82,21.13c0,0,27.83,101.19,64.79,115.36c24.62,9.44,120.45-34.96,120.45-34.96L2282.27,1124.41z"/>
		<g>
			<path fill="#305387" d="M2498.94,1794.66c0,0,14.88,13.58,11.98,23.23c-2.9,9.65-16.33,16.08-18.15,27.88
				c-1.82,11.79-9.07,18.22-15.61,18.22c-6.53,0-31.15,0-31.15,0s-4.81-8.3,6.8-10.8c11.61-2.5,15.99-16.36,15.27-29.22
				c-0.73-12.87,1.09-30.02,1.09-30.02l24.68-5.72L2498.94,1794.66z"/>
			<path fill="#305387" d="M2316.39,1829.79c0,0,2.67,30.91-3.86,34.12l-83.61-0.17c0,0,0-9.65,13.43-11.79
				c13.43-2.14,37.02-10.01,41.01-27.52C2287.35,1806.92,2316.39,1829.79,2316.39,1829.79z"/>
			<path fill="#AEC3FF" d="M2245.8,1393.22c0,0,4.41,54.17,9.59,119.29c7.04,88.46,15.51,197.12,16.35,217.7
				c1.45,35.74,7.26,92.92,7.26,92.92s13.79,13.58,41.38,7.86c0,0,24.59-81.62,31.61-167.98c0.11-1.42,0.22-2.84,0.33-4.27
				c6.53-87.91,16.69-273.03,16.69-273.03L2245.8,1393.22z"/>
			<path fill="#91B0F2" d="M2245.8,1393.22c0,0,4.41,54.17,9.59,119.29l96.6,150.5c0.11-1.42,0.22-2.84,0.33-4.27
				c6.53-87.91,16.69-273.03,16.69-273.03L2245.8,1393.22z"/>
			<path fill="#AEC3FF" d="M2265.94,1399.66c0,0,79.48,196.2,131.75,288.4c52.26,92.2,68.6,117.93,68.6,117.93
				s29.94-11.79,32.66-19.83c0,0-19.99-178-54.99-221.39c-19.78-24.52-43.01-98.1-44.1-123.83s-7.08-76.66-7.08-76.66
				L2265.94,1399.66z"/>
		</g>
		<path fill="#FFB27D" d="M2368.15,1115.52c0,0-55.83,21.18-85.88,8.89c0,0,4.85-5.13,13.27-10.22c5.41-3.27,8.66-9.19,8.33-15.5
			c-0.1-1.96-0.17-3.81-0.2-5.54c-0.39-10.64,0.65-18.13,0.65-18.13l21.57-12.93l20.96-13.85
			C2341.49,1091.86,2368.15,1115.52,2368.15,1115.52z"/>
		<path fill="#F99746" d="M2401.3,1385.36c0.2,3.28-6.75,7.2-9.82,8.69c-22.76,10.64-44.04,18.2-68.32,21.12
			c-28.64,3.63-62.78-2-74.45-1.48c-1.19,0.02-2.29-0.4-3.26-1.22c-0.86-0.55-2.26-35.18-2.73-78.74c-0.04-1.75-0.09-3.53,0-5.28
			l-0.01-0.58c-0.17-17.03,0-34.88,0.39-52.74c0.26-13.91,0.71-27.65,1.39-40.51c0.83-16.11,2.04-30.85,3.7-42.92
			c0.76-5.51,1.62-10.44,2.57-14.71c4.34-18.85,12.58-33.14,21.85-44.25c4.71-5.62,10.31-10.43,16.47-14.38l6.71-4.3
			c10.79,1.85,19.89,0.65,31.09-5.13c12.25-6.3,25.45-13.07,27.63-11.46c16.5,11.46,28.11,37.84,34.77,71.74
			c3.69,18.85,5.85,39.94,6.39,62.09c0.01,0.78,0.04,1.57,0.05,2.35c0.17,7.14,0.17,14.45,0.01,21.71
			c-0.02,1.34-0.07,2.68-0.11,4.01c-0.63,17.27-0.51,33.66,0.01,48.67c0.08,2.21,0.16,4.4,0.25,6.55
			c0.97,22.56,2.78,41.57,4.08,54.96C2400.6,1376.33,2401.09,1381.59,2401.3,1385.36z"/>
		<path fill="#ED985F" d="M2345.75,1065.01c0,0-15.69,23.5-42.08,28.15c-0.89-13.46,2.01-34.14,2.01-34.14l20.21,3.08
			L2345.75,1065.01z"/>
		<path fill="#FFB27D" d="M2290.04,1063.45c0,0,45.74,24.7,60.6-3.54c14.86-28.23,30.77-44.06,2.19-61.02
			c-28.58-16.96-39.97-9.17-47.26-0.96S2278.52,1056.3,2290.04,1063.45z"/>
		<path fill="#2C3A64" d="M2388.58,1007.26c0.62-0.35,1.77-0.41,4.07,0.25c0,0-1.42-1.75-3.81-2.65c0.61-3.31,0.87-9.44-4.07-12.67
			c0,0,2.37,2.55,1.59,6.03c-4.04-8.6-15.84-17.92-54.01-27.84c-50.31-13.07-45.01,23.87-39.96,29.8c5.05,5.93,24.55,1.2,36.04,6.22
			c11.49,5.02,7.83,22.87,11.03,26.6c3.2,3.73,3.05-0.96,9.32-1.53c6.27-0.58,3.68,8.59,0.09,13.89s1.2,15.58,1.2,15.58
			s0,0,10.33-5.5c10.33-5.5,29.3-37.39,28.41-45.9C2388.73,1008.78,2388.66,1008.03,2388.58,1007.26z"/>
		<path fill="#FFB27D" d="M2444.74,1380.9c-0.4,0.92-13.79,19.99-11.85,35.5c1.26,10,23.88,35.75,23.01,21.92
			c-1.88-29.98,4.34-26.72,8.58-49.98L2444.74,1380.9z"/>
		<path fill="#FFB27D" d="M2440.45,1388.17c0,0-19.05,12.72-16.26,14.89c2.8,2.18,14.29-5.28,14.29-5.28L2440.45,1388.17z"/>
		<path fill="#ED7D2B" d="M2395.63,1259.35c-0.63,17.27-0.51,33.66,0.01,48.67l-0.01,0.04c-30.79-25.33-56.71-101.82-57.3-103.26
			l57.35,26.49c0.01,0.78,0.04,1.57,0.05,2.35c0.17,7.14,0.17,14.45,0.01,21.71C2395.72,1256.67,2395.67,1258.02,2395.63,1259.35z"
			/>
		<path fill="#F99746" d="M2317.46,1139.79c3.77-28.58,37.07-42.35,48.46-31.14c0.42,0.42,71.13,70.83,94.95,138.49
			c16.78,47.67,6.83,141.93,6.83,141.93s-21.07,3-28.64-6.37c0,0-10.96-77.03-22.45-98.12c-7.75-14.23-107.06-95.26-102.64-121.18
			C2315.15,1156.55,2316.34,1148.26,2317.46,1139.79z"/>
	</g>
	<g>
		<path fill="#F78248" d="M2258.53,867.31c-54.2-58.44-111.46,24.23-111.46,24.23s-70.99-71.23-113.99-4.12
			c-43,67.11,129.11,173.54,129.11,173.54S2312.73,925.75,2258.53,867.31z"/>
		<g>
			<path fill="#FFB699" d="M2243.08,892.73c-4.74,2.17-10.35,0.88-13.64-3.16c-3.53-4.33-8.97-9.13-16.16-9.89
				c-4.83-0.51-8.33-4.84-7.82-9.67c0.51-4.83,4.84-8.33,9.67-7.82c15.57,1.65,25.67,12.63,30.85,20.17
				C2248.46,885.96,2247.06,890.93,2243.08,892.73L2243.08,892.73z"/>
		</g>
		<g>
			<path fill="#FFB699" d="M2147.12,1037.84c-9.71-7.37-36.41-30.73-36.41-30.73c-4.25-3.24-10.82-11.4-7.58-15.65
				c3.24-4.25,15.08,4.17,19.33,7.41c0,0,19.58,18.83,29.99,24.63c11.44,6.38,16.43,11.81,13.19,16.06
				C2163.98,1041.74,2155.65,1044.32,2147.12,1037.84z"/>
		</g>
	</g>
	<path fill="#233862" d="M2763.97,1869.73H235.3c-1.73,0-3.15-1.42-3.15-3.14v-1.77c0-1.73,1.42-3.15,3.15-3.15h2528.67
		c1.73,0,3.14,1.42,3.14,3.15v1.77C2767.12,1868.32,2765.7,1869.73,2763.97,1869.73z"/>
</g>
</svg>
