<svg xmlns="http://www.w3.org/2000/svg" width="19.993" height="20" viewBox="0 0 19.993 20">
  <path id="internet" d="M17.517,3.417a.312.312,0,0,0-.07-.077,9.977,9.977,0,0,0-14.905,0,.312.312,0,0,0-.067.073v.008a10,10,0,1,0,15.052,0ZM17.2,15.977a11.175,11.175,0,0,0-2.246-1,15.861,15.861,0,0,0,.761-4.67H19.36a9.326,9.326,0,0,1-2.155,5.67ZM.633,10.309H4.273a15.861,15.861,0,0,0,.761,4.672,11.175,11.175,0,0,0-2.246,1,9.326,9.326,0,0,1-2.155-5.67ZM2.811,3.991a11.208,11.208,0,0,0,2.234.99,15.842,15.842,0,0,0-.772,4.7H.633A9.326,9.326,0,0,1,2.811,3.991Zm7.5,1.732a16.455,16.455,0,0,0,4.061-.569,15.463,15.463,0,0,1,.731,4.53H10.309Zm0-.625V.644c1.584.176,2.968,1.685,3.842,3.922a15.847,15.847,0,0,1-3.842.533Zm-.625,0a15.846,15.846,0,0,1-3.842-.533C6.716,2.329,8.1.82,9.684.644Zm0,.625V9.684H4.9a15.463,15.463,0,0,1,.725-4.53,16.456,16.456,0,0,0,4.061.569ZM4.9,10.309H9.684v3.927a16.45,16.45,0,0,0-4.061.572,15.488,15.488,0,0,1-.725-4.5ZM9.684,14.86v4.489c-1.59-.178-2.986-1.7-3.855-3.953a15.839,15.839,0,0,1,3.855-.536Zm.625,0a15.841,15.841,0,0,1,3.855.536c-.868,2.254-2.265,3.775-3.855,3.953Zm0-.625V10.309h4.786a15.488,15.488,0,0,1-.725,4.5,16.45,16.45,0,0,0-4.061-.57Zm5.41-4.551a15.842,15.842,0,0,0-.772-4.7,11.208,11.208,0,0,0,2.234-.99A9.326,9.326,0,0,1,19.36,9.684Zm1.039-6.166a10.732,10.732,0,0,1-2.021.875A8.37,8.37,0,0,0,12.423.945a9.371,9.371,0,0,1,4.334,2.572ZM7.569.945A8.327,8.327,0,0,0,5.257,4.392a10.732,10.732,0,0,1-2.021-.875A9.371,9.371,0,0,1,7.569.945ZM3.213,16.453a10.691,10.691,0,0,1,2.03-.884,8.358,8.358,0,0,0,2.324,3.478A9.371,9.371,0,0,1,3.213,16.453Zm9.215,2.594a8.47,8.47,0,0,0,2.324-3.478,10.693,10.693,0,0,1,2.03.884,9.371,9.371,0,0,1-4.359,2.594Z" transform="translate(-0.004 0.003)" fill="#43494b"/>
</svg>
