<svg xmlns="http://www.w3.org/2000/svg" width="14.283" height="20" viewBox="0 0 14.283 20">
  <g id="lock" transform="translate(-3.316 -0.459)">
    <g id="Group_4566" data-name="Group 4566">
      <g id="Group_4559" data-name="Group 4559">
        <path id="Path_2997" data-name="Path 2997" d="M16.541,20.459H4.375A1.059,1.059,0,0,1,3.317,19.4V9.065A1.059,1.059,0,0,1,4.375,8.006H16.541A1.059,1.059,0,0,1,17.6,9.065V19.4A1.059,1.059,0,0,1,16.541,20.459ZM4.375,8.555a.51.51,0,0,0-.51.51V19.4a.51.51,0,0,0,.51.51H16.541a.51.51,0,0,0,.51-.51V9.065a.51.51,0,0,0-.51-.51Z" fill="#43494b"/>
      </g>
      <g id="Group_4560" data-name="Group 4560">
        <path id="Path_2998" data-name="Path 2998" d="M15.651,8.555a.274.274,0,0,1-.275-.275V5.922a4.915,4.915,0,1,0-9.829,0v2.36a.275.275,0,0,1-.549,0V5.922a5.463,5.463,0,1,1,10.926,0v2.36a.272.272,0,0,1-.273.273Z" fill="#43494b"/>
      </g>
      <g id="Group_4561" data-name="Group 4561">
        <path id="Path_2999" data-name="Path 2999" d="M14.124,8.555a.274.274,0,0,1-.275-.275V5.922a3.387,3.387,0,1,0-6.774,0v2.36a.275.275,0,0,1-.549,0V5.922a3.936,3.936,0,0,1,7.872,0v2.36A.274.274,0,0,1,14.124,8.555Z" fill="#43494b"/>
      </g>
      <g id="Group_4565" data-name="Group 4565">
        <g id="Group_4563" data-name="Group 4563">
          <g id="Group_4562" data-name="Group 4562">
            <path id="Path_3000" data-name="Path 3000" d="M11.193,14.57a.274.274,0,0,1-.132-.515,1.244,1.244,0,1,0-1.2,0,.274.274,0,0,1-.264.481,1.794,1.794,0,1,1,1.727,0A.294.294,0,0,1,11.193,14.57Z" fill="#43494b"/>
          </g>
        </g>
        <g id="Group_4564" data-name="Group 4564">
          <path id="Path_3001" data-name="Path 3001" d="M10.462,17.3a1.006,1.006,0,0,1-1.005-1.005v-2a.275.275,0,0,1,.549,0v2a.456.456,0,1,0,.912,0v-2a.275.275,0,0,1,.549,0v2A1.006,1.006,0,0,1,10.462,17.3Z" fill="#43494b"/>
        </g>
      </g>
    </g>
  </g>
</svg>
