<svg xmlns="http://www.w3.org/2000/svg" width="18" height="18" viewBox="0 0 18 18">
  <g id="Group_5082" data-name="Group 5082" transform="translate(-10277 -1750)">
    <g id="Group_4092" data-name="Group 4092" transform="translate(10277 1751.87)">
      <g id="Group_4091" data-name="Group 4091">
        <path id="Path_2805" data-name="Path 2805" d="M9.323,18.53a9.016,9.016,0,0,1-5.69-16,.578.578,0,0,1,.726.9,7.849,7.849,0,1,0,12.8,6.1,7.692,7.692,0,0,0-2.9-6.068.578.578,0,0,1,.726-.9A8.907,8.907,0,0,1,18.323,9.53,9.008,9.008,0,0,1,9.323,18.53Z" transform="translate(-0.323 -2.4)"/>
      </g>
    </g>
    <g id="Group_4095" data-name="Group 4095" transform="translate(10285.419 1750)">
      <g id="Group_4094" data-name="Group 4094">
        <path id="Path_2806" data-name="Path 2806" d="M10.258,9.9a.582.582,0,0,1-.581-.581V.9a.581.581,0,0,1,1.161,0V9.323A.582.582,0,0,1,10.258,9.9Z" transform="translate(-9.677 -0.323)"/>
      </g>
    </g>
  </g>
</svg>
