<svg xmlns="http://www.w3.org/2000/svg" width="18" height="18" viewBox="0 0 18 18">
  <g id="Group_5080" data-name="Group 5080" transform="translate(-10276 -1395)">
    <g id="Group_4424" data-name="Group 4424" transform="translate(10276 1395)">
      <path id="Path_2893" data-name="Path 2893" d="M9.84,18H8.16a1.123,1.123,0,0,1-1.115-.99L6.866,15.6a7.088,7.088,0,0,1-1.03-.427l-1.12.871a1.119,1.119,0,0,1-1.489-.094L2.045,14.771a1.116,1.116,0,0,1-.091-1.484l.871-1.121a6.924,6.924,0,0,1-.427-1.03l-1.41-.179A1.126,1.126,0,0,1,0,9.84V8.16A1.123,1.123,0,0,1,.99,7.045L2.4,6.866a7.087,7.087,0,0,1,.427-1.03l-.87-1.121a1.118,1.118,0,0,1,.1-1.489L3.23,2.044a1.117,1.117,0,0,1,1.484-.092l1.121.871A7.062,7.062,0,0,1,6.866,2.4L7.045.988A1.123,1.123,0,0,1,8.16,0H9.84a1.123,1.123,0,0,1,1.115.99L11.134,2.4a7.062,7.062,0,0,1,1.031.427l1.12-.871a1.118,1.118,0,0,1,1.489.1l1.181,1.181a1.116,1.116,0,0,1,.092,1.484l-.871,1.121a6.924,6.924,0,0,1,.427,1.03l1.41.179A1.124,1.124,0,0,1,18,8.16V9.84a1.123,1.123,0,0,1-.99,1.115l-1.407.179a7.088,7.088,0,0,1-.427,1.03l.871,1.12a1.117,1.117,0,0,1-.1,1.489L14.77,15.955a1.115,1.115,0,0,1-1.484.092l-1.121-.871a6.924,6.924,0,0,1-1.03.427l-.179,1.41A1.124,1.124,0,0,1,9.84,18ZM5.8,14.355a.38.38,0,0,1,.183.047,6.3,6.3,0,0,0,1.33.552.374.374,0,0,1,.268.313l.21,1.65a.379.379,0,0,0,.371.333H9.84a.378.378,0,0,0,.37-.329l.211-1.653a.374.374,0,0,1,.269-.313,6.3,6.3,0,0,0,1.33-.552.374.374,0,0,1,.412.031l1.313,1.02a.369.369,0,0,0,.491-.026l1.189-1.189a.371.371,0,0,0,.029-.495l-1.02-1.312a.374.374,0,0,1-.031-.412,6.3,6.3,0,0,0,.552-1.33.374.374,0,0,1,.313-.269l1.65-.21a.38.38,0,0,0,.333-.371V8.16a.378.378,0,0,0-.329-.37L15.268,7.58a.374.374,0,0,1-.313-.268A6.3,6.3,0,0,0,14.4,5.981a.373.373,0,0,1,.031-.412l1.02-1.312a.368.368,0,0,0-.025-.49L14.241,2.576a.369.369,0,0,0-.495-.029l-1.312,1.02a.376.376,0,0,1-.413.031,6.269,6.269,0,0,0-1.33-.552.374.374,0,0,1-.268-.313l-.21-1.65A.38.38,0,0,0,9.84.75H8.16a.378.378,0,0,0-.37.329L7.579,2.732a.376.376,0,0,1-.268.314A6.267,6.267,0,0,0,5.98,3.6a.376.376,0,0,1-.413-.031L4.255,2.546a.368.368,0,0,0-.49.025L2.575,3.761a.371.371,0,0,0-.029.495l1.02,1.313a.374.374,0,0,1,.031.412,6.256,6.256,0,0,0-.552,1.331.374.374,0,0,1-.313.268l-1.65.21A.379.379,0,0,0,.75,8.16V9.84a.378.378,0,0,0,.329.37l1.653.211a.374.374,0,0,1,.313.269,6.3,6.3,0,0,0,.552,1.33.373.373,0,0,1-.031.412l-1.02,1.313a.368.368,0,0,0,.025.49l1.189,1.189a.371.371,0,0,0,.5.029l1.312-1.02a.386.386,0,0,1,.231-.078Z" fill="#43494b"/>
    </g>
    <g id="Group_4425" data-name="Group 4425" transform="translate(10276 1395)">
      <path id="Path_2894" data-name="Path 2894" d="M9,12.75A3.75,3.75,0,1,1,12.75,9,3.754,3.754,0,0,1,9,12.75ZM9,6a3,3,0,1,0,3,3A3,3,0,0,0,9,6Z" fill="#43494b"/>
    </g>
  </g>
</svg>
