<svg xmlns="http://www.w3.org/2000/svg" width="18" height="18" viewBox="0 0 18 18">
  <g id="Group_5079" data-name="Group 5079" transform="translate(-10276 -1442)">
    <path id="Path_3244" data-name="Path 3244" d="M16.5,3a.3.3,0,0,0,.3-.3V2.1A1.5,1.5,0,0,0,15.3.6H4.5A1.5,1.5,0,0,0,3,2.1V15.6h.6V2.1a.9.9,0,0,1,.9-.9h9.6a1.492,1.492,0,0,0-.3.9v15a.9.9,0,0,1-1.8,0v-.6a.3.3,0,0,0-.3-.3H.9a.3.3,0,0,0-.3.3v.6a1.5,1.5,0,0,0,1.5,1.5H12.9a1.5,1.5,0,0,0,1.5-1.5V3ZM2.1,18a.9.9,0,0,1-.9-.9v-.3H11.4v.3a1.492,1.492,0,0,0,.3.9ZM15.3,1.2a.9.9,0,0,1,.9.9v.3H14.4V2.1a.9.9,0,0,1,.9-.9Z" transform="translate(10275.4 1441.4)" fill="#43494b"/>
    <path id="Path_3245" data-name="Path 3245" d="M6.9,3.9a.766.766,0,0,0,.3.62A.786.786,0,0,0,8.08,5.4a.786.786,0,0,0,1.24,0A.786.786,0,0,0,10.2,4.52a.786.786,0,0,0,0-1.24A.786.786,0,0,0,9.32,2.4a.786.786,0,0,0-1.24,0A.786.786,0,0,0,7.2,3.28.766.766,0,0,0,6.9,3.9Zm.739-.174a.3.3,0,0,0,.188-.453.179.179,0,0,1,.246-.246.3.3,0,0,0,.453-.187.179.179,0,0,1,.348,0,.3.3,0,0,0,.453.188.179.179,0,0,1,.246.246.3.3,0,0,0,.188.453.179.179,0,0,1,0,.348.3.3,0,0,0-.187.453.179.179,0,0,1-.246.246.3.3,0,0,0-.453.188.179.179,0,0,1-.348,0,.3.3,0,0,0-.453-.188.179.179,0,0,1-.246-.246.3.3,0,0,0-.187-.453.179.179,0,0,1,0-.348Z" transform="translate(10275.4 1441.4)" fill="#43494b"/>
    <path id="Path_3246" data-name="Path 3246" d="M7.2,7.5h3v.6h-3Z" transform="translate(10275.4 1441.4)" fill="#43494b"/>
    <path id="Path_3247" data-name="Path 3247" d="M8.1,6.3h3v.6h-3Z" transform="translate(10275.4 1441.4)" fill="#43494b"/>
    <path id="Path_3248" data-name="Path 3248" d="M6.3,6.3H7.5v.6H6.3Z" transform="translate(10275.4 1441.4)" fill="#43494b"/>
    <path id="Path_3249" data-name="Path 3249" d="M5.7,9h7.2v.6H5.7Z" transform="translate(10275.4 1441.4)" fill="#43494b"/>
    <path id="Path_3250" data-name="Path 3250" d="M4.5,9h.6v.6H4.5Z" transform="translate(10275.4 1441.4)" fill="#43494b"/>
    <path id="Path_3251" data-name="Path 3251" d="M5.7,10.2h4.8v.6H5.7Z" transform="translate(10275.4 1441.4)" fill="#43494b"/>
    <path id="Path_3252" data-name="Path 3252" d="M11.1,10.2h1.8v.6H11.1Z" transform="translate(10275.4 1441.4)" fill="#43494b"/>
    <path id="Path_3253" data-name="Path 3253" d="M5.7,11.4h7.2V12H5.7Z" transform="translate(10275.4 1441.4)" fill="#43494b"/>
    <path id="Path_3254" data-name="Path 3254" d="M4.5,11.4h.6V12H4.5Z" transform="translate(10275.4 1441.4)" fill="#43494b"/>
    <path id="Path_3255" data-name="Path 3255" d="M5.7,12.6H7.5v.6H5.7Z" transform="translate(10275.4 1441.4)" fill="#43494b"/>
    <path id="Path_3256" data-name="Path 3256" d="M8.1,12.6h4.8v.6H8.1Z" transform="translate(10275.4 1441.4)" fill="#43494b"/>
    <path id="Path_3257" data-name="Path 3257" d="M5.7,13.8h4.8v.6H5.7Z" transform="translate(10275.4 1441.4)" fill="#43494b"/>
    <path id="Path_3258" data-name="Path 3258" d="M4.5,13.8h.6v.6H4.5Z" transform="translate(10275.4 1441.4)" fill="#43494b"/>
    <path id="Path_3259" data-name="Path 3259" d="M5.7,15h7.2v.6H5.7Z" transform="translate(10275.4 1441.4)" fill="#43494b"/>
    <path id="Path_3260" data-name="Path 3260" d="M11.1,13.8h1.8v.6H11.1Z" transform="translate(10275.4 1441.4)" fill="#43494b"/>
    <path id="Path_3261" data-name="Path 3261" d="M17.7,5.4h-.3a1.2,1.2,0,0,0-2.4,0V15a.3.3,0,0,0,.032.134h0l.9,1.8a.3.3,0,0,0,.537,0l.9-1.8h0A.3.3,0,0,0,17.4,15V6h.3a.3.3,0,0,1,.3.3V9.6h.6V6.3a.9.9,0,0,0-.9-.9Zm-1.5-.6a.6.6,0,0,1,.6.6H15.6a.6.6,0,0,1,.6-.6Zm.6,9.9H15.6V10.2h1.2Zm0-5.1H15.6V9h1.2Zm-.6,6.529-.415-.829h.829ZM16.8,8.4H15.6V6h1.2Z" transform="translate(10275.4 1441.4)" fill="#43494b"/>
  </g>
</svg>
